# xmcd CD database file
#
# Track frame offsets:
#	150
#	28655
#	55000
#	78347
#	92205
#	121695
#	147947
#
# Disc length: 2306 seconds
#
# Revision: 1
# Processed by: cddbd v1.5.2PL0 Copyright (c) Steve Scherf et al.
# Submitted via: CDex 1.51
#
DISCID=51090007
DTITLE=Lou Donaldson - With The Three Sounds
DYEAR=1959
DGENRE=Jazz
TTITLE0=Three Little Words (Kalmar-Ruby)
TTITLE1=Smooth Groove (Donaldson)
TTITLE2=Just Friends (Lewis-Klenner)
TTITLE3=Blue Moon (Rodgers-Hart)
TTITLE4=Jump Up (Donaldson)
TTITLE5=Don't Take Your Love From Me (Nemo)
TTITLE6=Confirmation (Parker)
EXTD=YEAR: 1959
EXTT0=
EXTT1=
EXTT2=
EXTT3=
EXTT4=
EXTT5=
EXTT6=
PLAYORDER=
